<?xml version="1.0" encoding="utf-8"?>
<!-- Generator: Adobe Illustrator 20.0.0, SVG Export Plug-In . SVG Version: 6.00 Build 0)  -->
<svg version="1.1" id="Layer_1" xmlns="http://www.w3.org/2000/svg" xmlns:xlink="http://www.w3.org/1999/xlink" x="0px" y="0px"
	 width="500px" height="500px" viewBox="0 0 500 500" style="enable-background:new 0 0 500 500;" xml:space="preserve">
<style type="text/css">
	.st0{clip-path:url(#SVGID_2_);fill:#425152;}
</style>
<g>
	<defs>
		<rect id="SVGID_1_" x="87.2" y="87.1" width="325.5" height="325.7"/>
	</defs>
	<clipPath id="SVGID_2_">
		<use xlink:href="#SVGID_1_"  style="overflow:visible;"/>
	</clipPath>
	<path class="st0" d="M131.1,250c0,64.3,53.1,116.3,119.8,116.3c65.5,0,118.7-52.1,118.7-116.3c0-65.4-53.1-117.4-118.7-117.4
		C184.2,132.6,131.1,184.6,131.1,250 M106.2,250c0-7.8,1.1-15.5,2.3-23.3l-15.8-4.4c-3.4-1.1-5.7-5.5-4.5-10l7.9-25.5
		c1.1-4.4,5.6-6.6,10.2-4.4l15.8,4.4c6.8-14.4,15.8-26.6,27.1-37.7l-9-12.2c-2.3-4.4-2.3-8.9,2.3-11.1l21.5-15.5
		c3.4-3.3,9-2.2,11.3,1.1l9,13.3c13.6-7.8,29.4-12.2,45.2-14.4V94.9c0-4.4,3.4-7.8,7.9-7.8h27.1c4.5,0,7.9,3.3,7.9,7.8v15.5
		c15.8,2.2,30.5,6.6,44.1,13.3l9-11.1c2.3-3.3,6.8-4.4,11.3-2.2l21.5,16.6c3.4,2.2,4.5,6.6,1.1,10l-7.9,12.2
		c11.3,11.1,20.3,23.3,28.3,37.7l13.6-4.4c4.5-1.1,9,1.1,10.2,4.4l9,25.5c1.1,4.4-1.1,8.9-5.7,10l-14.7,4.4
		c2.3,7.8,2.3,15.5,2.3,23.3c0,7.8,0,15.5-2.3,23.3l14.7,4.4c4.5,1.1,6.8,5.5,5.7,10l-7.9,25.5c-2.3,3.3-6.8,5.5-10.2,4.4l-14.7-4.4
		c-7.9,13.3-17,26.6-28.3,36.6l9,13.3c3.4,3.3,2.3,7.8-1.1,11.1l-22.6,15.5c-3.4,2.2-7.9,1.1-10.2-2.2l-10.2-12.2
		c-13.6,6.6-28.3,12.2-44.1,14.4v15.5c0,4.4-3.4,7.8-7.9,7.8h-27.1c-4.5,0-7.9-3.3-7.9-7.8v-15.5c-17-2.2-31.6-7.8-45.2-14.4
		L174,388.5c-2.3,3.3-7.9,4.4-11.3,2.2l-21.5-16.6c-4.5-2.2-4.5-6.6-2.3-10l10.2-14.4c-11.3-10-20.3-23.3-27.1-36.6l-15.8,5.5
		c-4.5,1.1-9-1.1-10.2-5.5l-7.9-25.5c-2.3-3.3,0-7.8,4.5-10l15.8-4.4C107.3,265.5,106.2,257.8,106.2,250"/>
	<path class="st0" d="M209.1,258.9c0-10-6.8-17.7-14.7-21.1v-58.7c0-1.1-2.3-2.2-3.4-2.2h-10.2c-1.1,0-2.3,1.1-2.3,2.2v58.7
		c-9,3.3-14.7,11.1-14.7,21.1c0,8.9,5.6,17.7,14.7,21.1v39.9c0,2.2,1.1,3.3,2.3,3.3H191c1.1,0,3.4-1.1,3.4-3.3v-39.9
		C202.3,276.6,209.1,267.7,209.1,258.9"/>
	<path class="st0" d="M268.9,215.7c0-10-5.7-17.7-14.7-21.1v-15.5c0-1.1-1.1-2.2-3.4-2.2h-9c-2.3,0-3.4,1.1-3.4,2.2v15.5
		c-7.9,3.3-14.7,11.1-14.7,21.1c0,8.9,6.8,16.6,14.7,19.9v84.2c0,2.2,1.1,3.3,3.4,3.3h9c2.3,0,3.4-1.1,3.4-3.3v-84.2
		C263.3,232.3,268.9,224.5,268.9,215.7"/>
	<path class="st0" d="M328.8,287.7c0-10-5.7-17.7-14.7-21.1v-87.5c0-1.1-1.1-2.2-3.4-2.2h-9c-2.3,0-3.4,1.1-3.4,2.2v87.5
		c-9,3.3-14.7,11.1-14.7,21.1c0,8.9,5.6,16.6,14.7,19.9v12.2c0,2.2,1.1,3.3,3.4,3.3h9c2.3,0,3.4-1.1,3.4-3.3v-12.2
		C323.2,304.3,328.8,296.5,328.8,287.7"/>
</g>
</svg>
